<svg xmlns="http://www.w3.org/2000/svg" viewBox="0 0 406.859 111.723">
  <defs>
    <style>
      .cls-1 {
        fill: #0f1f59;
      }

      .cls-2 {
        fill: #009b4c;
      }
    </style>
  </defs>
  <g id="Si_Laura" data-name="Si Laura" transform="translate(-105.951 -353.086)">
    <path id="Si_Laura-2" data-name="Si Laura" class="cls-1" d="M-112.45-33.3a28.016,28.016,0,0,1,6,10.6,23.186,23.186,0,0,1,.65,11.55,20.046,20.046,0,0,1-5.65,10.2q-4.5,4.55-13,6.45a24.813,24.813,0,0,1-9.85.4,23.806,23.806,0,0,1-8.25-2.95,18.065,18.065,0,0,1-5.8-5.4,14.3,14.3,0,0,1-2.5-6.95,14.3,14.3,0,0,1,1.75-8.3,15.765,15.765,0,0,1,4.55-5.2,16.876,16.876,0,0,1,4.8-2.35,17.938,17.938,0,0,1,4.75-.8,12.853,12.853,0,0,1,4.05.5,9.8,9.8,0,0,1,2.9,1.35,7.032,7.032,0,0,1,1.9,2.4,6.629,6.629,0,0,1,.65,2.5,6.657,6.657,0,0,1-.25,2.2,3.525,3.525,0,0,1-.8,1.5,8.844,8.844,0,0,0-2.4-.75,10.979,10.979,0,0,0-2.75-.15,16.277,16.277,0,0,0-2.6.4,4.615,4.615,0,0,0-1.95.9,7.794,7.794,0,0,0-2.8,3.65,7.677,7.677,0,0,0-.3,4.05,8.607,8.607,0,0,0,1.75,3.7,9.325,9.325,0,0,0,3.35,2.65,10.48,10.48,0,0,0,4.55.95,11.971,11.971,0,0,0,5.35-1.4A13.778,13.778,0,0,0-119-6.2a14.021,14.021,0,0,0,2.25-6.15,17.612,17.612,0,0,0-.65-7,27.937,27.937,0,0,0-3.25-7.15q-.5-.7-2.1-2.5t-3.55-4.3q-1.95-2.5-3.9-5.45a27.864,27.864,0,0,1-3.05-6.05,15.824,15.824,0,0,1-1.05-7.65,13.662,13.662,0,0,1,2.55-6.6,13.468,13.468,0,0,1,5.8-4.4,18.507,18.507,0,0,1,8.7-1.15,18.036,18.036,0,0,1,8.05,2.4,11.891,11.891,0,0,1,4.6,4.7,8.736,8.736,0,0,1,.8,5.65,9.037,9.037,0,0,1-3.25,5.25,7.2,7.2,0,0,1-4.9,2.05,6.989,6.989,0,0,1-4.25-1.4,6.272,6.272,0,0,1-2.3-3.55,5.56,5.56,0,0,1,.95-4.5,5.109,5.109,0,0,0,2.85,1.35,2.768,2.768,0,0,0,2-.6,2.667,2.667,0,0,0,.9-1.7,2.715,2.715,0,0,0-.45-1.95,3.617,3.617,0,0,0-1.5-1.3,5.839,5.839,0,0,0-2.1-.6,7.392,7.392,0,0,0-2.25.15,5.035,5.035,0,0,0-2.05.95,7.579,7.579,0,0,0-3.25,4.25,10.9,10.9,0,0,0,.15,5.55,11.982,11.982,0,0,0,1.7,3.7,43.862,43.862,0,0,0,2.95,4q1.65,2,3.3,3.8T-112.45-33.3Zm16.8,5.5a6.888,6.888,0,0,0,.4-2.15q0-.95-.05-1.75t-.1-1.45a2.346,2.346,0,0,1,.25-1.25,3.588,3.588,0,0,1,1.75-1.5,12.838,12.838,0,0,1,2.05-.6h1.1q1,0,2.2.05t2.35.15a5.02,5.02,0,0,1,1.75.4,3.163,3.163,0,0,1,1.65,1.85,3.145,3.145,0,0,1-.65,2.65q-1.3,2-2.9,4.5t-2.75,4.75a15.048,15.048,0,0,0-1.45,3.8q-.3,1.55,1,1.55a4.585,4.585,0,0,0,1.4-.4,13.508,13.508,0,0,0,2.3-1.25A22.791,22.791,0,0,0-82.7-20.5a21.925,21.925,0,0,0,2.55-2.7,15.056,15.056,0,0,0,1-1.2q.7-.9,1.55-1.9t1.55-1.8q.7-.8.9-1a2.99,2.99,0,0,1,2-.8,1.6,1.6,0,0,1,1.2.7,2.3,2.3,0,0,1,.35,1.45,3.493,3.493,0,0,1-.45,1.55,8.387,8.387,0,0,1-1.05,1.85q-.75,1.05-1.6,2.1t-1.65,2q-.8.95-1.2,1.45a39.693,39.693,0,0,1-3.35,3.35,36.261,36.261,0,0,1-3.85,3,32.61,32.61,0,0,1-3.95,2.3A14.242,14.242,0,0,1-92.25-8.9q-1.1.2-3,.45a7.34,7.34,0,0,1-3.45-.3A3.915,3.915,0,0,1-101-11q-.75-1.7.45-5.3a14.963,14.963,0,0,1,1.1-2.6q.9-1.8,2.1-4.7.5-1.2.85-1.95A22.637,22.637,0,0,0-95.65-27.8Zm13.5-12a6.508,6.508,0,0,1-4.45.4A4.222,4.222,0,0,1-89.55-42a4.581,4.581,0,0,1,.15-3.9,6.16,6.16,0,0,1,3.15-3,6.176,6.176,0,0,1,4.4-.35,4.7,4.7,0,0,1,3,2.55A4.581,4.581,0,0,1-79-42.8,6.159,6.159,0,0,1-82.15-39.8ZM33.75-8q.9.6,1.5,3.1A12.276,12.276,0,0,1,35.2.6a12.593,12.593,0,0,1-3.05,5.7Q29.75,9,24.55,10A26.415,26.415,0,0,1,13,9.85,46.422,46.422,0,0,1,1.9,5.5,95.964,95.964,0,0,1-9.35-1.7q-5.7-4.2-11.9-8.8a18.9,18.9,0,0,1-5.7,6.35,22.974,22.974,0,0,1-7.9,3.6A22.522,22.522,0,0,1-43.7-.2a19.475,19.475,0,0,1-8.55-3.6A14.921,14.921,0,0,1-56.4-8.75a11.251,11.251,0,0,1-1.35-6.05,15.327,15.327,0,0,1,1.2-4.75,10.923,10.923,0,0,1,2.8-3.95,13.666,13.666,0,0,1,6.3-3.1,24.393,24.393,0,0,1,7.15-.35,29.576,29.576,0,0,1,7.15,1.6,39.384,39.384,0,0,1,6.3,2.85q0-.1.95-2.6t2.1-5.55l2.15-5.7q1-2.65,1.2-3.15.5-1.4,1.1-3t1.2-3.15q.6-1.55,1.1-2.85t.8-2.2q-1.4.4-3.5,1.15t-3.2,1.25a13.265,13.265,0,0,0-3.9,2.6A9.488,9.488,0,0,0-29-42.6a8.446,8.446,0,0,0-.65,3.2,6.186,6.186,0,0,0,.6,2.8,7.569,7.569,0,0,1-3.5-.85,11.265,11.265,0,0,1-3.7-2.7,8.684,8.684,0,0,1-2.1-4.25,8.047,8.047,0,0,1,1.3-5.6,8.9,8.9,0,0,1,2.6-2.95,13.866,13.866,0,0,1,4.05-1.9,27.054,27.054,0,0,1,5.9-1q3.45-.25,8.15-.25.8,0,2.8-.05t4.25-.1q2.25-.05,4.2,0a8.3,8.3,0,0,1,2.65.35,1.641,1.641,0,0,1,1.2,1.45,2.294,2.294,0,0,1-.9,1.95q-1.1.9-1.95,1.6a13.8,13.8,0,0,0-2.05,2.3,2.669,2.669,0,0,0-.5.7q-.3.7-1.2,3.1t-2.1,5.7q-1.2,3.3-2.55,7T-15-25.2q-1.15,3.2-2,5.5t-.95,2.7Q-11.45-12.4-7-9.35t8,5a34.1,34.1,0,0,0,6.8,2.9A40.3,40.3,0,0,0,15.25-.1a26.051,26.051,0,0,0,7.1-.15,19.046,19.046,0,0,0,5.35-1.7A12.759,12.759,0,0,0,31.4-4.7,16.267,16.267,0,0,0,33.75-8Zm-72.6-.6a12.9,12.9,0,0,0,5.4-2.95,19.945,19.945,0,0,0,3.7-4.65A28.757,28.757,0,0,0-35-18.85a37.534,37.534,0,0,0-4.75-1.45A17.472,17.472,0,0,0-44-20.8a12.3,12.3,0,0,0-4.1.65,6.475,6.475,0,0,0-3,2.1,5.623,5.623,0,0,0-1.05,3.85,4.975,4.975,0,0,0,1.6,3.65A9.008,9.008,0,0,0-47-8.6a13.914,13.914,0,0,0,4.25.55A15.068,15.068,0,0,0-38.85-8.6Zm68.5-13.8q2.1-2.4,3.8-2.7a2.209,2.209,0,0,1,2.35.45,1.486,1.486,0,0,1,.05,1.95,1.769,1.769,0,0,0-.5.8q-1.6,2.3-3.25,4.55a42.977,42.977,0,0,1-3.45,4.15,16.313,16.313,0,0,1-3.85,3.05A8.945,8.945,0,0,1,20.35-9q-5.8,0-6.5-4.8a12.865,12.865,0,0,1-2.95,2.65,13.655,13.655,0,0,1-4,1.85,9.507,9.507,0,0,1-4.2.25A5.331,5.331,0,0,1-.75-11.3a8.369,8.369,0,0,1-1.5-4.1,16.075,16.075,0,0,1,.3-5.3,20.272,20.272,0,0,1,2.2-5.655,20.43,20.43,0,0,1,4.1-5.133,20.212,20.212,0,0,1,5.9-3.7,20.131,20.131,0,0,1,7.8-1.417,11.176,11.176,0,0,1,5.55,1.316A6.141,6.141,0,0,1,26.55-32.4q.6,1.57-1.15,2.834T18.75-28.5a2.386,2.386,0,0,0,.4-1.923q-.2-1.114-.8-1.317a4.135,4.135,0,0,0-3.1.861,16.155,16.155,0,0,0-3.5,3.172,21.5,21.5,0,0,0-2.9,4.458,11.977,11.977,0,0,0-1.3,4.75q-.1,2,1.05,2.25a2.724,2.724,0,0,0,2.25-.55,8.058,8.058,0,0,0,1.8-2.1q.8-1.3,1.65-2.55a17.741,17.741,0,0,1,1.8-2.25,3.843,3.843,0,0,1,2.25-1.2q.1,0,1.2-.05a12.859,12.859,0,0,1,2.25.1,4.479,4.479,0,0,1,1.85.6q.7.45,0,1.45a19.638,19.638,0,0,0-2.7,4.6q-.7,1.9.9,2.2a3.348,3.348,0,0,0,2-.2,5.546,5.546,0,0,0,1.75-1.3q.85-.9,1.85-2.15Zm42.1-3a6.418,6.418,0,0,1,2.75-2.1,1.714,1.714,0,0,1,1.75.3,2.3,2.3,0,0,1,.55,1.8,4.662,4.662,0,0,1-.85,2.4,61.8,61.8,0,0,1-7.55,9.8A13.39,13.39,0,0,1,61.25-9a10.473,10.473,0,0,1-5.1-.25,5.532,5.532,0,0,1-3.5-3.25q-.4.3-1.55,1.15A11.243,11.243,0,0,1,48.35-9.9,12.185,12.185,0,0,1,43.3-9a7.219,7.219,0,0,1-4.65-2,6.176,6.176,0,0,1-2.05-5.25,23.559,23.559,0,0,1,1.45-6.95,13.013,13.013,0,0,1,.5-1.4q.4-1,.9-2.1t1-2.05q.5-.95.7-1.25-.9,1.2-2.5,3.5t-4.4,6.3a2.734,2.734,0,0,1-1.85.85,2.91,2.91,0,0,1-1.8-.45,2.637,2.637,0,0,1-1.05-1.35,1.7,1.7,0,0,1,.5-1.75q1.4-1.8,2.75-3.75t2.55-3.6q1.2-1.65,2.15-2.9a7.6,7.6,0,0,1,1.55-1.65,7.529,7.529,0,0,1,4.2-1.7q2.1-.1,4.5-.1a4.935,4.935,0,0,1,1.8.35A2.92,2.92,0,0,1,51-35a3.923,3.923,0,0,1,.45,2.35A11.158,11.158,0,0,1,50.35-29q-.4.8-1,2.25t-1.15,3q-.55,1.55-1,3.05a17.052,17.052,0,0,0-.55,2.2,3.249,3.249,0,0,0,.1,1.85,1.5,1.5,0,0,0,.9.85,2,2,0,0,0,1.25,0,3.617,3.617,0,0,0,1.25-.7,11.09,11.09,0,0,0,2.35-4q1.15-2.9,2.35-6.1t2.35-5.85q1.15-2.65,2.35-3.25a7.686,7.686,0,0,1,3-.85,10.418,10.418,0,0,1,3.1.15,3.476,3.476,0,0,1,2.05,1.1q.65.8-.15,2-.2.3-.65.85A11.808,11.808,0,0,0,65.65-30q-.6,1.3-1.35,3.2t-1.55,4A20.166,20.166,0,0,0,62-19.85a9.315,9.315,0,0,0-.15,2.45,1.33,1.33,0,0,0,.75,1.25q.65.25,1.95-.65a13.6,13.6,0,0,0,2.55-2.7Q68.85-21.7,71.75-25.4Zm27.7,2.6a7.975,7.975,0,0,1,2.9-2.5,3.9,3.9,0,0,1,2.3-.4,1.679,1.679,0,0,1,1.25,1,1.631,1.631,0,0,1-.15,1.6,1.567,1.567,0,0,0-.3.4,1.567,1.567,0,0,1-.3.4q-1.4,1.9-3.05,3.8a45.707,45.707,0,0,1-3.55,3.65,35.651,35.651,0,0,1-3.85,3.1A16.567,16.567,0,0,1,90.75-9.7a9.41,9.41,0,0,1-2.05.6,17.535,17.535,0,0,1-3.9.4,12.554,12.554,0,0,1-4.25-.75,5.317,5.317,0,0,1-3.1-2.85,6.73,6.73,0,0,1-.4-5.3,17.579,17.579,0,0,1,2.7-4.95,36.236,36.236,0,0,1,3.8-4.25,22.252,22.252,0,0,0,2.9-3.2,1.64,1.64,0,0,0,.45-1.35,1.691,1.691,0,0,0-.75-.95,9.1,9.1,0,0,0-1.4-.75,15.728,15.728,0,0,1-1.5-.75q-.4.7-1.25,2.15T80.05-28.5q-1.1,1.7-2.4,3.6t-2.5,3.5a3.646,3.646,0,0,1-1.8,1.45,5.561,5.561,0,0,1-2,.15,6.517,6.517,0,0,1-1.5-.5q-.9-.4-1.5-.6,4-5.7,7.2-9.7a29.513,29.513,0,0,0,3.9-5.7,10.876,10.876,0,0,1-4.05-6.45,6.065,6.065,0,0,1,1.95-5.75,6.4,6.4,0,0,1,5.05-1.65,8.066,8.066,0,0,1,5.15,2.45,5.582,5.582,0,0,1,1.25,4.5,7.827,7.827,0,0,1-2.35,5q.8.4,2.45,1.15T91.35-36a9.537,9.537,0,0,1,4.85,3.5q1.55,2.3-.15,5.2a23.171,23.171,0,0,1-3.1,4q-1.9,2-3.3,3.7-.6.7-1.4,1.7t-.7,1.5q0,1.7,1.6,1.25a11.843,11.843,0,0,0,3.6-1.9q2-1.45,3.95-3.15A33.187,33.187,0,0,0,99.45-22.8ZM82.85-41a2.43,2.43,0,0,0,.75-1.05,2.954,2.954,0,0,0,.2-1.3,2.569,2.569,0,0,0-.4-1.2,1.415,1.415,0,0,0-1.05-.65,1.335,1.335,0,0,0-.95.2,1.765,1.765,0,0,0-.8.9,1.573,1.573,0,0,0,.2,1.4A5.313,5.313,0,0,0,82.85-41Zm46.3,18.6q2.1-2.4,3.8-2.7a2.209,2.209,0,0,1,2.35.45,1.486,1.486,0,0,1,.05,1.95,1.769,1.769,0,0,0-.5.8q-1.6,2.3-3.25,4.55a42.976,42.976,0,0,1-3.45,4.15,16.313,16.313,0,0,1-3.85,3.05A8.945,8.945,0,0,1,119.85-9q-5.8,0-6.5-4.8a12.865,12.865,0,0,1-2.95,2.65,13.655,13.655,0,0,1-4,1.85,9.507,9.507,0,0,1-4.2.25,5.331,5.331,0,0,1-3.45-2.25,8.369,8.369,0,0,1-1.5-4.1,16.075,16.075,0,0,1,.3-5.3,20.272,20.272,0,0,1,2.2-5.655,20.43,20.43,0,0,1,4.1-5.133,20.212,20.212,0,0,1,5.9-3.7,20.131,20.131,0,0,1,7.8-1.417,11.176,11.176,0,0,1,5.55,1.316,6.141,6.141,0,0,1,2.95,2.886q.6,1.57-1.15,2.834T118.25-28.5a2.386,2.386,0,0,0,.4-1.923q-.2-1.114-.8-1.317a4.135,4.135,0,0,0-3.1.861,16.155,16.155,0,0,0-3.5,3.172,21.5,21.5,0,0,0-2.9,4.458,11.977,11.977,0,0,0-1.3,4.75q-.1,2,1.05,2.25a2.724,2.724,0,0,0,2.25-.55,8.058,8.058,0,0,0,1.8-2.1q.8-1.3,1.65-2.55a17.741,17.741,0,0,1,1.8-2.25,3.843,3.843,0,0,1,2.25-1.2q.1,0,1.2-.05a12.859,12.859,0,0,1,2.25.1,4.479,4.479,0,0,1,1.85.6q.7.45,0,1.45a19.638,19.638,0,0,0-2.7,4.6q-.7,1.9.9,2.2a3.348,3.348,0,0,0,2-.2,5.546,5.546,0,0,0,1.75-1.3q.85-.9,1.85-2.15Z" transform="translate(322.076 417.768)"/>
    <path id="Detail_Si_Laura" data-name="Detail Si Laura" class="cls-2" d="M-194.492-3.478a3.449,3.449,0,0,1-.487,1.793A3.494,3.494,0,0,1-196.42-.369a5,5,0,0,1-2.324.5,6.032,6.032,0,0,1-2.415-.459,4.083,4.083,0,0,1-1.7-1.324,3.821,3.821,0,0,1-.73-2.018h2.7a2.065,2.065,0,0,0,.622,1.288,1.95,1.95,0,0,0,1.415.514,1.646,1.646,0,0,0,1.216-.423,1.476,1.476,0,0,0,.423-1.09,1.428,1.428,0,0,0-.342-.982,2.5,2.5,0,0,0-.865-.622q-.523-.234-1.442-.541a14.249,14.249,0,0,1-1.946-.784A3.6,3.6,0,0,1-203.1-7.442a3.226,3.226,0,0,1-.532-1.928,3.135,3.135,0,0,1,1.18-2.586,4.851,4.851,0,0,1,3.126-.946,4.952,4.952,0,0,1,3.216.973,3.673,3.673,0,0,1,1.36,2.595h-2.739a1.907,1.907,0,0,0-.577-1.126,1.79,1.79,0,0,0-1.279-.441,1.687,1.687,0,0,0-1.135.369,1.332,1.332,0,0,0-.432,1.072,1.333,1.333,0,0,0,.333.928,2.544,2.544,0,0,0,.847.6,13.9,13.9,0,0,0,1.4.523,18.567,18.567,0,0,1,1.991.811,3.508,3.508,0,0,1,1.306,1.135A3.336,3.336,0,0,1-194.492-3.478Zm1.586-9.37a1.281,1.281,0,0,1,.432-1,1.637,1.637,0,0,1,1.135-.387,1.637,1.637,0,0,1,1.135.387,1.281,1.281,0,0,1,.432,1,1.261,1.261,0,0,1-.432.982,1.637,1.637,0,0,1-1.135.387,1.637,1.637,0,0,1-1.135-.387A1.261,1.261,0,0,1-192.906-12.848Zm2.829,2.865V0h-2.541V-9.983Zm5.748-.126a4.4,4.4,0,0,1,2.919.919,3.98,3.98,0,0,1,1.369,2.451h-2.379a1.977,1.977,0,0,0-.649-1.153,1.95,1.95,0,0,0-1.315-.432,1.512,1.512,0,0,0-1.009.306,1.032,1.032,0,0,0-.36.829.843.843,0,0,0,.288.667,2.077,2.077,0,0,0,.721.4q.432.144,1.243.342a12.786,12.786,0,0,1,1.847.532,3.056,3.056,0,0,1,1.225.883,2.434,2.434,0,0,1,.514,1.631,2.519,2.519,0,0,1-1,2.072,4.218,4.218,0,0,1-2.694.793,5.09,5.09,0,0,1-3.117-.874,3.674,3.674,0,0,1-1.424-2.5h2.433a1.644,1.644,0,0,0,.649,1.162,2.352,2.352,0,0,0,1.46.423,1.413,1.413,0,0,0,.991-.315,1.063,1.063,0,0,0,.342-.82.906.906,0,0,0-.3-.7,2.007,2.007,0,0,0-.739-.414q-.441-.144-1.252-.342a14.116,14.116,0,0,1-1.811-.514,2.891,2.891,0,0,1-1.189-.838,2.354,2.354,0,0,1-.5-1.586,2.6,2.6,0,0,1,.991-2.108A4.206,4.206,0,0,1-184.329-10.109Zm11.64,7.929V0h-1.333a3.689,3.689,0,0,1-2.568-.811,3.51,3.51,0,0,1-.892-2.7V-7.838h-1.387V-9.983h1.387v-2.469h2.541v2.469h2.234v2.144h-2.234v4.361a1.407,1.407,0,0,0,.288,1.009,1.346,1.346,0,0,0,.973.288ZM-161.48-5.37a4.811,4.811,0,0,1-.09.865h-7.316a2.752,2.752,0,0,0,.721,1.964,2.319,2.319,0,0,0,1.658.631,2.4,2.4,0,0,0,1.469-.432,1.915,1.915,0,0,0,.748-1.171h2.685a4.3,4.3,0,0,1-.847,1.874,4.426,4.426,0,0,1-1.667,1.3,5.346,5.346,0,0,1-2.261.469A5.314,5.314,0,0,1-168.976-.5a4.37,4.37,0,0,1-1.766-1.775,5.586,5.586,0,0,1-.631-2.721,5.639,5.639,0,0,1,.631-2.73A4.3,4.3,0,0,1-168.976-9.5a5.377,5.377,0,0,1,2.595-.613A5.259,5.259,0,0,1-163.8-9.5a4.318,4.318,0,0,1,1.712,1.685A4.89,4.89,0,0,1-161.48-5.37Zm-2.559-.252a2.239,2.239,0,0,0-.64-1.856,2.439,2.439,0,0,0-1.7-.631,2.5,2.5,0,0,0-1.73.631,2.582,2.582,0,0,0-.775,1.856Zm17.064-4.5A3.746,3.746,0,0,1-144.1-9a4.5,4.5,0,0,1,1.054,3.2V0h-2.523V-5.514a2.491,2.491,0,0,0-.586-1.775,2.109,2.109,0,0,0-1.613-.622,2.221,2.221,0,0,0-1.694.667,2.729,2.729,0,0,0-.631,1.946V0h-2.523V-5.514a2.491,2.491,0,0,0-.586-1.775,2.108,2.108,0,0,0-1.613-.622,2.221,2.221,0,0,0-1.694.667,2.729,2.729,0,0,0-.631,1.946V0h-2.541V-9.983h2.541v1.892a3.094,3.094,0,0,1,1.252-1.5,3.7,3.7,0,0,1,1.991-.532,3.781,3.781,0,0,1,2.1.577,3.524,3.524,0,0,1,1.342,1.658,3.769,3.769,0,0,1,1.4-1.631A3.734,3.734,0,0,1-146.975-10.127Zm12.632-2.595V0h-2.541V-12.722Zm8.253,2.595a3.535,3.535,0,0,1,2.757,1.135A4.586,4.586,0,0,1-122.306-5.8V0h-2.523V-5.514a2.607,2.607,0,0,0-.613-1.847,2.178,2.178,0,0,0-1.676-.658,2.241,2.241,0,0,0-1.73.7A2.87,2.87,0,0,0-129.5-5.3V0h-2.541V-9.983h2.541v2a3.181,3.181,0,0,1,1.306-1.577A3.883,3.883,0,0,1-126.09-10.127Zm10.956-1.586a2.171,2.171,0,0,0-1.568.324,1.781,1.781,0,0,0-.45,1.387v.018h2.018v2.144h-2.018V0h-2.541V-7.838h-1.279V-9.983h1.279v-.234a3.6,3.6,0,0,1,1.018-2.748,4.237,4.237,0,0,1,3.018-.964q.342,0,.523.018Zm6.127,1.6a5.536,5.536,0,0,1,2.622.613,4.484,4.484,0,0,1,1.829,1.775,5.392,5.392,0,0,1,.667,2.73,5.342,5.342,0,0,1-.667,2.721A4.561,4.561,0,0,1-106.386-.5a5.47,5.47,0,0,1-2.622.622A5.47,5.47,0,0,1-111.63-.5a4.561,4.561,0,0,1-1.829-1.775,5.342,5.342,0,0,1-.667-2.721,5.392,5.392,0,0,1,.667-2.73A4.484,4.484,0,0,1-111.63-9.5,5.536,5.536,0,0,1-109.008-10.109Zm0,2.2a2.437,2.437,0,0,0-1.8.748,2.962,2.962,0,0,0-.739,2.171,2.962,2.962,0,0,0,.739,2.171,2.437,2.437,0,0,0,1.8.748,2.437,2.437,0,0,0,1.8-.748,2.962,2.962,0,0,0,.739-2.171,2.962,2.962,0,0,0-.739-2.171A2.437,2.437,0,0,0-109.008-7.91Zm9.46-.162a4.176,4.176,0,0,1,1.478-1.5,3.925,3.925,0,0,1,2.054-.55v2.721h-.739q-2.793,0-2.793,2.595V0h-2.541V-9.983h2.541Zm17.641-2.054A3.746,3.746,0,0,1-79.033-9a4.5,4.5,0,0,1,1.054,3.2V0H-80.5V-5.514a2.491,2.491,0,0,0-.586-1.775A2.109,2.109,0,0,0-82.7-7.91a2.221,2.221,0,0,0-1.694.667A2.729,2.729,0,0,0-85.024-5.3V0h-2.523V-5.514a2.491,2.491,0,0,0-.586-1.775,2.109,2.109,0,0,0-1.613-.622,2.221,2.221,0,0,0-1.694.667A2.729,2.729,0,0,0-92.07-5.3V0H-94.61V-9.983h2.541v1.892a3.094,3.094,0,0,1,1.252-1.5,3.7,3.7,0,0,1,1.991-.532,3.781,3.781,0,0,1,2.1.577,3.524,3.524,0,0,1,1.342,1.658,3.769,3.769,0,0,1,1.4-1.631A3.734,3.734,0,0,1-81.907-10.127Zm10.073.018a3.836,3.836,0,0,1,2.162.595,3.239,3.239,0,0,1,1.279,1.6V-9.983h2.523V0h-2.523V-2.09A3.286,3.286,0,0,1-69.672-.478a3.794,3.794,0,0,1-2.162.6A4.288,4.288,0,0,1-74.1-.487a4.139,4.139,0,0,1-1.577-1.775,6.155,6.155,0,0,1-.568-2.73,6.155,6.155,0,0,1,.568-2.73A4.139,4.139,0,0,1-74.1-9.5,4.288,4.288,0,0,1-71.834-10.109Zm.793,2.216a2.485,2.485,0,0,0-1.91.775,3,3,0,0,0-.721,2.126,2.966,2.966,0,0,0,.721,2.117,2.5,2.5,0,0,0,1.91.766,2.514,2.514,0,0,0,1.9-.784,2.915,2.915,0,0,0,.748-2.1,2.94,2.94,0,0,0-.748-2.117A2.514,2.514,0,0,0-71.041-7.892Zm10.92-2.216A4.4,4.4,0,0,1-57.2-9.19a3.98,3.98,0,0,1,1.369,2.451h-2.379a1.978,1.978,0,0,0-.649-1.153,1.95,1.95,0,0,0-1.315-.432,1.512,1.512,0,0,0-1.009.306,1.031,1.031,0,0,0-.36.829.843.843,0,0,0,.288.667,2.077,2.077,0,0,0,.721.4q.432.144,1.243.342a12.786,12.786,0,0,1,1.847.532,3.056,3.056,0,0,1,1.225.883,2.434,2.434,0,0,1,.514,1.631,2.519,2.519,0,0,1-1,2.072A4.218,4.218,0,0,1-59.4.126a5.09,5.09,0,0,1-3.117-.874,3.674,3.674,0,0,1-1.424-2.5h2.433a1.644,1.644,0,0,0,.649,1.162,2.352,2.352,0,0,0,1.46.423,1.413,1.413,0,0,0,.991-.315,1.063,1.063,0,0,0,.342-.82.906.906,0,0,0-.3-.7A2.007,2.007,0,0,0-59.1-3.91q-.441-.144-1.252-.342a14.115,14.115,0,0,1-1.811-.514A2.891,2.891,0,0,1-63.356-5.6a2.354,2.354,0,0,1-.5-1.586A2.6,2.6,0,0,1-62.86-9.3,4.206,4.206,0,0,1-60.121-10.109Zm6.018-2.739a1.281,1.281,0,0,1,.432-1,1.637,1.637,0,0,1,1.135-.387,1.637,1.637,0,0,1,1.135.387,1.281,1.281,0,0,1,.432,1,1.261,1.261,0,0,1-.432.982,1.637,1.637,0,0,1-1.135.387,1.637,1.637,0,0,1-1.135-.387A1.261,1.261,0,0,1-54.1-12.848Zm2.829,2.865V0h-2.541V-9.983ZM-42.5-1.946h4.271V0h-6.811V-12.722H-42.5Zm9.694-8.163a3.836,3.836,0,0,1,2.162.595,3.239,3.239,0,0,1,1.279,1.6V-9.983h2.523V0h-2.523V-2.09A3.286,3.286,0,0,1-30.642-.478a3.794,3.794,0,0,1-2.162.6,4.288,4.288,0,0,1-2.27-.613,4.139,4.139,0,0,1-1.577-1.775,6.155,6.155,0,0,1-.568-2.73,6.155,6.155,0,0,1,.568-2.73A4.139,4.139,0,0,1-35.075-9.5,4.288,4.288,0,0,1-32.8-10.109Zm.793,2.216a2.485,2.485,0,0,0-1.91.775,3,3,0,0,0-.721,2.126,2.967,2.967,0,0,0,.721,2.117,2.5,2.5,0,0,0,1.91.766,2.514,2.514,0,0,0,1.9-.784,2.915,2.915,0,0,0,.748-2.1,2.94,2.94,0,0,0-.748-2.117A2.514,2.514,0,0,0-32.011-7.892Zm9.19-2.09L-20.1-3.207l2.523-6.775h2.793l-6.109,14.74H-23.7l2.252-5.045-4.2-9.694Zm13.136-.126a3.836,3.836,0,0,1,2.162.595,3.239,3.239,0,0,1,1.279,1.6V-9.983h2.523V0H-6.244V-2.09A3.286,3.286,0,0,1-7.523-.478a3.794,3.794,0,0,1-2.162.6,4.288,4.288,0,0,1-2.27-.613,4.139,4.139,0,0,1-1.577-1.775,6.155,6.155,0,0,1-.568-2.73,6.155,6.155,0,0,1,.568-2.73A4.139,4.139,0,0,1-11.956-9.5,4.288,4.288,0,0,1-9.685-10.109Zm.793,2.216a2.485,2.485,0,0,0-1.91.775,3,3,0,0,0-.721,2.126A2.967,2.967,0,0,0-10.8-2.874a2.5,2.5,0,0,0,1.91.766,2.514,2.514,0,0,0,1.9-.784,2.915,2.915,0,0,0,.748-2.1,2.94,2.94,0,0,0-.748-2.117A2.514,2.514,0,0,0-8.893-7.892ZM4.532-10.127A3.535,3.535,0,0,1,7.289-8.992,4.586,4.586,0,0,1,8.316-5.8V0H5.793V-5.514a2.607,2.607,0,0,0-.613-1.847A2.178,2.178,0,0,0,3.5-8.019a2.241,2.241,0,0,0-1.73.7A2.87,2.87,0,0,0,1.126-5.3V0H-1.415V-9.983H1.126v2A3.181,3.181,0,0,1,2.433-9.559,3.883,3.883,0,0,1,4.532-10.127Zm9.929.018a3.836,3.836,0,0,1,2.162.595A3.239,3.239,0,0,1,17.9-7.91V-9.983h2.523V0H17.9V-2.09A3.286,3.286,0,0,1,16.623-.478a3.794,3.794,0,0,1-2.162.6,4.288,4.288,0,0,1-2.27-.613,4.139,4.139,0,0,1-1.577-1.775,6.155,6.155,0,0,1-.568-2.73,6.155,6.155,0,0,1,.568-2.73A4.139,4.139,0,0,1,12.19-9.5,4.288,4.288,0,0,1,14.46-10.109Zm.793,2.216a2.485,2.485,0,0,0-1.91.775,3,3,0,0,0-.721,2.126,2.967,2.967,0,0,0,.721,2.117,2.5,2.5,0,0,0,1.91.766,2.514,2.514,0,0,0,1.9-.784,2.915,2.915,0,0,0,.748-2.1,2.94,2.94,0,0,0-.748-2.117A2.514,2.514,0,0,0,15.253-7.892Zm13.424-2.234a3.535,3.535,0,0,1,2.757,1.135A4.586,4.586,0,0,1,32.462-5.8V0H29.939V-5.514a2.607,2.607,0,0,0-.613-1.847,2.178,2.178,0,0,0-1.676-.658,2.241,2.241,0,0,0-1.73.7A2.87,2.87,0,0,0,25.272-5.3V0H22.731V-9.983h2.541v2a3.181,3.181,0,0,1,1.306-1.577A3.883,3.883,0,0,1,28.678-10.127Zm12.4-2.595v7.46a3.313,3.313,0,0,0,.658,2.243,2.4,2.4,0,0,0,1.9.748,2.374,2.374,0,0,0,1.883-.748,3.313,3.313,0,0,0,.658-2.243v-7.46H48.7v7.46a6.2,6.2,0,0,1-.658,2.982A4.236,4.236,0,0,1,46.22-.469a5.713,5.713,0,0,1-2.64.595,4.944,4.944,0,0,1-3.658-1.369,5.447,5.447,0,0,1-1.369-4.018v-7.46Zm22.56,2.595A3.746,3.746,0,0,1,66.509-9a4.5,4.5,0,0,1,1.054,3.2V0H65.041V-5.514a2.491,2.491,0,0,0-.586-1.775,2.109,2.109,0,0,0-1.613-.622,2.221,2.221,0,0,0-1.694.667A2.729,2.729,0,0,0,60.518-5.3V0H58V-5.514a2.491,2.491,0,0,0-.586-1.775A2.109,2.109,0,0,0,55.8-7.91a2.221,2.221,0,0,0-1.694.667A2.729,2.729,0,0,0,53.472-5.3V0H50.932V-9.983h2.541v1.892a3.094,3.094,0,0,1,1.252-1.5,3.7,3.7,0,0,1,1.991-.532,3.781,3.781,0,0,1,2.1.577,3.524,3.524,0,0,1,1.342,1.658,3.769,3.769,0,0,1,1.4-1.631A3.734,3.734,0,0,1,63.635-10.127Zm15.713.144V0H76.807V-2.018A3.181,3.181,0,0,1,75.5-.441a3.883,3.883,0,0,1-2.1.568,3.535,3.535,0,0,1-2.757-1.135A4.558,4.558,0,0,1,69.618-4.18v-5.8H72.14v5.514a2.607,2.607,0,0,0,.613,1.847,2.156,2.156,0,0,0,1.658.658,2.263,2.263,0,0,0,1.748-.7,2.87,2.87,0,0,0,.649-2.018v-5.3Zm15.01-.144A3.746,3.746,0,0,1,97.232-9a4.5,4.5,0,0,1,1.054,3.2V0H95.764V-5.514a2.491,2.491,0,0,0-.586-1.775,2.109,2.109,0,0,0-1.613-.622,2.221,2.221,0,0,0-1.694.667A2.729,2.729,0,0,0,91.241-5.3V0H88.718V-5.514a2.491,2.491,0,0,0-.586-1.775A2.109,2.109,0,0,0,86.52-7.91a2.221,2.221,0,0,0-1.694.667A2.729,2.729,0,0,0,84.2-5.3V0H81.655V-9.983H84.2v1.892a3.094,3.094,0,0,1,1.252-1.5,3.7,3.7,0,0,1,1.991-.532,3.781,3.781,0,0,1,2.1.577A3.524,3.524,0,0,1,90.88-7.892a3.769,3.769,0,0,1,1.4-1.631A3.734,3.734,0,0,1,94.358-10.127ZM106.99-4.721V0h-2.541V-12.722h4.631a4.775,4.775,0,0,1,3.4,1.081A3.848,3.848,0,0,1,113.621-8.7a3.742,3.742,0,0,1-1.18,2.9,4.8,4.8,0,0,1-3.361,1.081Zm1.82-2.036q2.234,0,2.234-1.946a1.936,1.936,0,0,0-.523-1.46,2.41,2.41,0,0,0-1.712-.5h-1.82v3.91Zm10.379-3.352a3.836,3.836,0,0,1,2.162.595,3.239,3.239,0,0,1,1.279,1.6V-9.983h2.523V0h-2.523V-2.09a3.286,3.286,0,0,1-1.279,1.613,3.794,3.794,0,0,1-2.162.6,4.288,4.288,0,0,1-2.27-.613,4.139,4.139,0,0,1-1.577-1.775,6.155,6.155,0,0,1-.568-2.73,6.155,6.155,0,0,1,.568-2.73A4.139,4.139,0,0,1,116.918-9.5,4.288,4.288,0,0,1,119.189-10.109Zm.793,2.216a2.485,2.485,0,0,0-1.91.775,3,3,0,0,0-.721,2.126,2.966,2.966,0,0,0,.721,2.117,2.5,2.5,0,0,0,1.91.766,2.514,2.514,0,0,0,1.9-.784,2.915,2.915,0,0,0,.748-2.1,2.94,2.94,0,0,0-.748-2.117A2.514,2.514,0,0,0,119.982-7.892Zm10.92-2.216a4.4,4.4,0,0,1,2.919.919,3.98,3.98,0,0,1,1.369,2.451h-2.379a1.977,1.977,0,0,0-.649-1.153,1.95,1.95,0,0,0-1.315-.432,1.512,1.512,0,0,0-1.009.306,1.032,1.032,0,0,0-.36.829.843.843,0,0,0,.288.667,2.077,2.077,0,0,0,.721.4q.432.144,1.243.342a12.786,12.786,0,0,1,1.847.532,3.056,3.056,0,0,1,1.225.883,2.434,2.434,0,0,1,.514,1.631,2.519,2.519,0,0,1-1,2.072,4.218,4.218,0,0,1-2.694.793A5.09,5.09,0,0,1,128.5-.748a3.674,3.674,0,0,1-1.424-2.5h2.433a1.644,1.644,0,0,0,.649,1.162,2.352,2.352,0,0,0,1.46.423,1.413,1.413,0,0,0,.991-.315,1.063,1.063,0,0,0,.342-.82.906.906,0,0,0-.3-.7,2.007,2.007,0,0,0-.739-.414q-.441-.144-1.252-.342a14.116,14.116,0,0,1-1.811-.514,2.891,2.891,0,0,1-1.189-.838,2.354,2.354,0,0,1-.5-1.586,2.6,2.6,0,0,1,.991-2.108A4.206,4.206,0,0,1,130.9-10.109Zm10.217,0a3.836,3.836,0,0,1,2.162.595,3.239,3.239,0,0,1,1.279,1.6V-9.983h2.523V0H144.56V-2.09a3.286,3.286,0,0,1-1.279,1.613,3.794,3.794,0,0,1-2.162.6,4.288,4.288,0,0,1-2.27-.613,4.139,4.139,0,0,1-1.577-1.775,6.155,6.155,0,0,1-.568-2.73,6.155,6.155,0,0,1,.568-2.73A4.139,4.139,0,0,1,138.848-9.5,4.288,4.288,0,0,1,141.118-10.109Zm.793,2.216a2.485,2.485,0,0,0-1.91.775,3,3,0,0,0-.721,2.126A2.967,2.967,0,0,0,140-2.874a2.5,2.5,0,0,0,1.91.766,2.514,2.514,0,0,0,1.9-.784,2.915,2.915,0,0,0,.748-2.1,2.94,2.94,0,0,0-.748-2.117A2.514,2.514,0,0,0,141.911-7.892Zm10.019-.18a4.176,4.176,0,0,1,1.478-1.5,3.925,3.925,0,0,1,2.054-.55v2.721h-.739q-2.793,0-2.793,2.595V0h-2.541V-9.983h2.541Zm16.091-4.649v8.974A3.861,3.861,0,0,1,167-.892a3.811,3.811,0,0,1-2.82,1.018A4.2,4.2,0,0,1,161.1-.991a4.275,4.275,0,0,1-1.135-3.189h2.5a2.4,2.4,0,0,0,.405,1.5,1.424,1.424,0,0,0,1.2.523,1.286,1.286,0,0,0,1.063-.423,1.8,1.8,0,0,0,.342-1.162v-8.974Zm6.127,2.613a3.836,3.836,0,0,1,2.162.595,3.239,3.239,0,0,1,1.279,1.6V-9.983h2.523V0h-2.523V-2.09A3.286,3.286,0,0,1,176.31-.478a3.794,3.794,0,0,1-2.162.6,4.288,4.288,0,0,1-2.27-.613A4.139,4.139,0,0,1,170.3-2.261a6.155,6.155,0,0,1-.568-2.73,6.155,6.155,0,0,1,.568-2.73A4.139,4.139,0,0,1,171.877-9.5,4.288,4.288,0,0,1,174.148-10.109Zm.793,2.216a2.485,2.485,0,0,0-1.91.775,3,3,0,0,0-.721,2.126,2.967,2.967,0,0,0,.721,2.117,2.5,2.5,0,0,0,1.91.766,2.514,2.514,0,0,0,1.9-.784,2.915,2.915,0,0,0,.748-2.1,2.94,2.94,0,0,0-.748-2.117A2.514,2.514,0,0,0,174.941-7.892Zm9.19-2.09,2.721,6.775,2.523-6.775h2.793l-6.109,14.74h-2.811L185.5-.288l-4.2-9.694Zm13.136-.126a3.836,3.836,0,0,1,2.162.595,3.239,3.239,0,0,1,1.279,1.6V-9.983h2.523V0h-2.523V-2.09a3.286,3.286,0,0,1-1.279,1.613,3.794,3.794,0,0,1-2.162.6A4.288,4.288,0,0,1,195-.487a4.139,4.139,0,0,1-1.577-1.775,6.155,6.155,0,0,1-.568-2.73,6.155,6.155,0,0,1,.568-2.73A4.139,4.139,0,0,1,195-9.5,4.288,4.288,0,0,1,197.267-10.109Zm.793,2.216a2.485,2.485,0,0,0-1.91.775,3,3,0,0,0-.721,2.126,2.967,2.967,0,0,0,.721,2.117,2.5,2.5,0,0,0,1.91.766,2.514,2.514,0,0,0,1.9-.784,2.915,2.915,0,0,0,.748-2.1,2.94,2.94,0,0,0-.748-2.117A2.514,2.514,0,0,0,198.059-7.892Z" transform="translate(309.578 460.052)"/>
  </g>
</svg>
